<?xml version="1.0" encoding="UTF-8"?> <svg xmlns="http://www.w3.org/2000/svg" id="Layer_1" data-name="Layer 1" viewBox="0 0 796.05 155.9"><defs><style>.cls-1{fill:#ea3030;}.cls-2{fill:#1f1f16;}</style></defs><path d="M694.57,72.68H650.63v-12H680V36.78H650.63v-12h43.94V.89H621.43V96.63h73.14Z"></path><path d="M266,.89h29.24V96.63H266V60.71H236.44V96.63H207.2V.89h29.24V36.78H266Z"></path><path d="M482.14.89h29.12V96.63H491.18l-38.51-47.9v47.9h-29.2V.89h20.09l38.58,47.84Z"></path><path d="M377.33,0h-2V55.16c0,5.06-1.39,9.15-4.14,12.33a13.73,13.73,0,0,1-10.7,4.72,13.55,13.55,0,0,1-10.67-4.72,18.31,18.31,0,0,1-4.16-12.33V0H316.47V50.64c0,14,4,25.4,12.11,34s18.81,12.94,32.1,12.94,23.74-4.32,31.8-12.94,12.06-19.93,12.06-33.95V0Z"></path><path d="M786.12,63.1c6.63-6.43,9.93-15.17,9.93-26.36q0-16.51-10-26.19T757.51.89H711.87V96.63h29.22V72.68h8.14l13.14,23.95h29.72L777,69.15A31.76,31.76,0,0,0,786.12,63.1Zm-45-38.29h15.78c5.67,0,10,4.43,10,12.2,0,7.41-4.31,11.72-10,11.72H741.09Z"></path><path d="M550,24.81V96.63h29.21V24.81H604.6V.89h-80V24.81Z"></path><path class="cls-1" d="M151.47,155.3H88A88.05,88.05,0,0,0,0,67.35V3.83C83.52,3.83,151.47,71.78,151.47,155.3Z"></path><path class="cls-1" d="M61.45,155.49H0V94.68A61.46,61.46,0,0,1,61.45,155.49Z"></path><path class="cls-1" d="M154.57,53.15V.91H102.88A52.24,52.24,0,0,0,154.57,53.15Z"></path><path class="cls-2" d="M225,114.05c8.86,0,15.9,4.46,19,12.38h-6.39c-2.23-4.93-6.58-7.69-12.56-7.69-8.57,0-15,6.22-15,16.26s6.4,16.2,15,16.2c6,0,10.33-2.76,12.56-7.63H244c-3.05,7.87-10.09,12.27-19,12.27-11.45,0-20.43-8.57-20.43-20.84S213.56,114.05,225,114.05Z"></path><path class="cls-2" d="M274.2,155.9c-11.51,0-20.55-8.63-20.55-20.9s9-20.9,20.55-20.9,20.54,8.63,20.54,20.9S285.76,155.9,274.2,155.9Zm0-4.64c8.63,0,15.08-6.28,15.08-16.26s-6.45-16.26-15.08-16.26S259.11,125,259.11,135,265.57,151.26,274.2,151.26Z"></path><path class="cls-2" d="M305.55,114.87h5.75l15,33.57,15-33.57h5.7v40.62h-5.34V125.2L328.2,155.49h-3.75l-13.56-30.35v30.35h-5.34Z"></path><path class="cls-2" d="M362.2,114.87H368l15,33.57,15-33.57h5.69v40.62h-5.34V125.2l-13.5,30.29H381.1l-13.56-30.35v30.35H362.2Z"></path><path class="cls-2" d="M417.55,114.57h5.34v25.89c0,7.51,4.05,10.74,10.1,10.74s10-3.23,10-10.74V114.57h5.34V140.4c0,10.62-7,15.5-15.44,15.5s-15.38-4.88-15.38-15.5Z"></path><path class="cls-2" d="M494.39,114.51v41h-5.34l-21.48-32.58v32.58h-5.35v-41h5.35L489.05,147V114.51Z"></path><path class="cls-2" d="M509.6,114.57h5.34v40.92H509.6Z"></path><path class="cls-2" d="M547.4,114.05c8.86,0,15.91,4.46,19,12.38H560c-2.23-4.93-6.57-7.69-12.56-7.69-8.57,0-15,6.22-15,16.26s6.4,16.2,15,16.2c6,0,10.33-2.76,12.56-7.63h6.4c-3.05,7.87-10.1,12.27-19,12.27C536,155.84,527,147.27,527,135S536,114.05,547.4,114.05Z"></path><path class="cls-2" d="M601.05,146.39H583.21l-3.29,9.1h-5.63l14.79-40.68h6.16L610,155.49h-5.63Zm-8.92-25L584.73,142h14.8Z"></path><path class="cls-2" d="M614.14,114.57h27.71v4.35H630.7v36.57h-5.34V118.92H614.14Z"></path><path class="cls-2" d="M653.36,114.57h5.34v40.92h-5.34Z"></path><path class="cls-2" d="M690.1,155.9c-11.5,0-20.54-8.63-20.54-20.9s9-20.9,20.54-20.9,20.55,8.63,20.55,20.9S701.67,155.9,690.1,155.9Zm0-4.64c8.63,0,15.09-6.28,15.09-16.26s-6.46-16.26-15.09-16.26S675,125,675,135,681.47,151.26,690.1,151.26Z"></path><path class="cls-2" d="M753.62,114.51v41h-5.34l-21.49-32.58v32.58h-5.34v-41h5.34L748.28,147V114.51Z"></path><path class="cls-2" d="M779.45,155.9c-8.22,0-14-4.58-14.15-11.33H771c.35,3.4,2.75,6.81,8.45,6.81,5.16,0,8.22-2.94,8.22-6.81,0-11-22.13-4-22.13-19.2,0-6.75,5.46-11.32,13.56-11.32,7.8,0,12.91,4.28,13.55,10.5h-5.86c-.36-2.76-2.94-5.87-7.93-5.93-4.4-.11-7.86,2.18-7.86,6.58,0,10.56,22.07,4,22.07,19.13C793.07,150.14,788.31,155.9,779.45,155.9Z"></path></svg> 