<?xml version="1.0" encoding="utf-8"?>
<!-- Generator: Adobe Illustrator 24.3.0, SVG Export Plug-In . SVG Version: 6.00 Build 0)  -->
<svg version="1.1" id="Layer_1" xmlns="http://www.w3.org/2000/svg" xmlns:xlink="http://www.w3.org/1999/xlink" x="0px" y="0px"
	 viewBox="0 0 384 201.1" style="enable-background:new 0 0 384 201.1;" xml:space="preserve">
<style type="text/css">
	.st0{fill:#231F20;}
	.st1{fill:none;stroke:#231F20;stroke-width:1.5;}
	.st2{fill:#ED1C24;}
	.st3{clip-path:url(#SVGID_3_);}
	.st4{clip-path:url(#SVGID_4_);fill:none;stroke:#FFFFFF;stroke-width:0.64;stroke-linejoin:round;stroke-miterlimit:10;}
	.st5{clip-path:url(#SVGID_4_);fill:none;stroke:#FFFFFF;stroke-width:0.96;stroke-linejoin:round;stroke-miterlimit:10;}
	.st6{clip-path:url(#SVGID_4_);fill:none;stroke:#FFFFFF;stroke-width:1.28;stroke-linejoin:round;stroke-miterlimit:10;}
	.st7{clip-path:url(#SVGID_8_);}
	.st8{clip-path:url(#SVGID_9_);}
	.st9{clip-path:url(#SVGID_10_);fill:#ED1C24;}
	.st10{clip-path:url(#SVGID_10_);fill:none;stroke:#FFFFFF;stroke-width:0.64;stroke-miterlimit:10;}
	.st11{clip-path:url(#SVGID_10_);fill:none;stroke:#FFFFFF;stroke-width:0.96;stroke-miterlimit:10;}
	.st12{clip-path:url(#SVGID_10_);fill:none;stroke:#FFFFFF;stroke-width:1.28;stroke-miterlimit:10;}
	.st13{clip-path:url(#SVGID_10_);fill:#FFFFFF;}
	.st14{font-family:'Futura-Bold';}
	.st15{font-size:19px;}
</style>
<g>
	<path class="st0" d="M52.4,87.7c-3.2-5.8-9.6-9.4-16.4-9.4c-10.1,0-17.2,7-17.2,17c0,5.3,2.5,9.3,6.9,12l12.1,6.4
		c5.8,2.9,13.5,6.1,13.5,13.6c0,8.9-7.8,15.9-16.6,15.9c-8.1,0-13.4-5-16.2-12.1l-3.7,1.7c3.1,8.6,10.4,14.4,19.8,14.4
		c10.9,0,21-8.4,21-19.5c0-6.1-2.6-10.2-7.7-13.4l-12.8-6.7c-5.4-2.6-12.1-5.5-12.1-12.6c0-7,5.4-12.8,12.6-12.8
		c6.3,0,10.6,3.1,13.6,7.9L52.4,87.7L52.4,87.7z M120.1,87c-6-5.5-14.2-8.7-22.3-8.7c-19.1,0-35.1,15.5-35.1,34.6
		c0,18.8,16.3,34.4,35,34.4c8.3,0,16-3.1,22.4-8.4V133c-5,6.1-14.8,10.3-22.5,10.3c-7.9,0-15.9-3.9-21.6-9.3c-5.6-5.5-9-12.9-9-20.8
		c0-16.5,13.8-30.9,30.6-30.9c8.3,0,17.4,4.3,22.5,10.6V87L120.1,87z M136.9,79.1h-4.3v67.2h4.3V79.1L136.9,79.1z M183.4,83.1v-4
		h-32.1v67.2h32.1v-4h-27.8v-30.7h27.1v-4h-27.1V83.1H183.4L183.4,83.1z M257.1,79.1h-4.3v58.6l-56.4-59.5v68.1h4.3V88.6l56.4,60
		V79.1L257.1,79.1z M324.9,87c-6-5.5-14.2-8.7-22.3-8.7c-19.1,0-35.1,15.5-35.1,34.6c0,18.8,16.3,34.4,35,34.4
		c8.3,0,16-3.1,22.4-8.4V133c-5,6.1-14.8,10.3-22.5,10.3c-7.9,0-15.9-3.9-21.6-9.3c-5.6-5.5-9-12.9-9-20.8
		c0-16.5,13.8-30.9,30.6-30.9c8.3,0,17.4,4.3,22.5,10.6V87L324.9,87z M369.5,83.1v-4h-32.1v67.2h32.1v-4h-27.8v-30.7h27.1v-4h-27.1
		V83.1H369.5L369.5,83.1z"/>
	<path class="st1" d="M52.4,87.7c-3.2-5.8-9.6-9.4-16.4-9.4c-10.1,0-17.2,7-17.2,17c0,5.3,2.5,9.3,6.9,12l12.1,6.4
		c5.8,2.9,13.5,6.1,13.5,13.6c0,8.9-7.8,15.9-16.6,15.9c-8.1,0-13.4-5-16.2-12.1l-3.7,1.7c3.1,8.6,10.4,14.4,19.8,14.4
		c10.9,0,21-8.4,21-19.5c0-6.1-2.6-10.2-7.7-13.4l-12.8-6.7c-5.4-2.6-12.1-5.5-12.1-12.6c0-7,5.4-12.8,12.6-12.8
		c6.3,0,10.6,3.1,13.6,7.9L52.4,87.7L52.4,87.7z M120.1,87c-6-5.5-14.2-8.7-22.3-8.7c-19.1,0-35.1,15.5-35.1,34.6
		c0,18.8,16.3,34.4,35,34.4c8.3,0,16-3.1,22.4-8.4V133c-5,6.1-14.8,10.3-22.5,10.3c-7.9,0-15.9-3.9-21.6-9.3c-5.6-5.5-9-12.9-9-20.8
		c0-16.5,13.8-30.9,30.6-30.9c8.3,0,17.4,4.3,22.5,10.6V87L120.1,87z M136.9,79.1h-4.3v67.2h4.3V79.1L136.9,79.1z M183.4,83.1v-4
		h-32.1v67.2h32.1v-4h-27.8v-30.7h27.1v-4h-27.1V83.1H183.4L183.4,83.1z M257.1,79.1h-4.3v58.6l-56.4-59.5v68.1h4.3V88.6l56.4,60
		V79.1L257.1,79.1z M324.9,87c-6-5.5-14.2-8.7-22.3-8.7c-19.1,0-35.1,15.5-35.1,34.6c0,18.8,16.3,34.4,35,34.4
		c8.3,0,16-3.1,22.4-8.4V133c-5,6.1-14.8,10.3-22.5,10.3c-7.9,0-15.9-3.9-21.6-9.3c-5.6-5.5-9-12.9-9-20.8
		c0-16.5,13.8-30.9,30.6-30.9c8.3,0,17.4,4.3,22.5,10.6V87L324.9,87z M369.5,83.1v-4h-32.1v67.2h32.1v-4h-27.8v-30.7h27.1v-4h-27.1
		V83.1H369.5L369.5,83.1z"/>
	<path class="st0" d="M62.4,18.3c-4.6-3.4-9.7-5.1-15.5-5.1c-14.9,0-27,12.2-27,27c0,14.7,12.4,26.6,27,26.6c5.5,0,11-1.9,15.5-5.1
		v-7.2c-4.1,4.1-9.8,6.9-15.7,6.9c-11.6,0-21.1-10-21.1-21.5c0-11.4,9.4-21.5,20.9-21.5c6,0,11.7,2.6,15.8,6.9V18.3L62.4,18.3z
		 M96.6,13.2c-14.8,0-27,12-27,26.9c0,14.9,12.3,26.8,27,26.8c14.8,0,27-11.8,27-26.8C123.6,25.2,111.4,13.2,96.6,13.2L96.6,13.2z
		 M96.6,18.5c11.9,0,21.3,9.7,21.3,21.5c0,11.7-9.5,21.5-21.3,21.5c-11.8,0-21.3-9.8-21.3-21.5C75.3,28.3,84.7,18.5,96.6,18.5
		L96.6,18.5z M127.7,66h5.9l6.7-35.1h0.1l16.7,37.2l16.7-37.2h0.1l6.7,35.1h5.9L176,11.1l-18.9,43.6l-18.9-43.6L127.7,66L127.7,66z
		 M198.9,43.3h4.2c4.3,0,8.8-0.5,12.3-3.4c3.2-2.7,5-7,5-11.2c0-4.6-2-9.2-5.8-11.8c-3.8-2.6-8.4-2.8-12.9-2.8h-8.5V66h5.8V43.3
		L198.9,43.3z M198.9,19.4h2.1c6.7,0,13.6,0.6,13.6,9.1c0,7.4-5.4,9.4-11.8,9.4h-3.9V19.4L198.9,19.4z M233.4,14.1h-5.8v32.5
		c0,5.9,0.6,10.7,5.1,15c3.5,3.4,8.5,5.3,13.4,5.3c5.2,0,10.4-2.1,14-5.9c4.1-4.3,4.5-8.7,4.5-14.4V14.1h-5.8V45
		c0,4.1,0.2,8.6-2.5,11.9c-2.4,2.9-6.5,4.6-10.2,4.6c-3.8,0-8.2-1.8-10.5-5c-2.4-3.3-2.3-7.7-2.3-11.6V14.1L233.4,14.1z M288.7,19.4
		h12.7v-5.4h-31v5.4h12.5V66h5.8V19.4L288.7,19.4z M307.2,66h26.9v-5.4H313V40.2h20.5v-5.4H313V19.4h21.1v-5.4h-26.9V66L307.2,66z
		 M349.8,19.4h1.7c7,0,13.2,0.8,13.2,9.4c0,8.1-6.6,9.3-13.1,9.3h-1.8V19.4L349.8,19.4z M349.8,43.2h1.4L366.9,66h7.1l-16.5-23.3
		c8-0.7,13-6.3,13-14.3c0-11.7-9.2-14.3-19-14.3H344V66h5.8V43.2L349.8,43.2z"/>
	<path class="st2" d="M96.2,68.1c15.2,0,27.4-12.3,27.4-27.4c0-15.2-12.3-27.4-27.4-27.4c-15.2,0-27.4,12.3-27.4,27.4
		C68.7,55.8,81,68.1,96.2,68.1L96.2,68.1z"/>
	<g>
		<defs>
			<rect id="SVGID_1_" x="33.5" y="8.3" width="101.1" height="63.7"/>
		</defs>
		<defs>
			<path id="SVGID_2_" d="M96.2,68.1c15.2,0,27.4-12.3,27.4-27.4c0-15.2-12.3-27.4-27.4-27.4c-15.2,0-27.4,12.3-27.4,27.4
				C68.7,55.8,81,68.1,96.2,68.1L96.2,68.1z"/>
		</defs>
		<clipPath id="SVGID_3_">
			<use xlink:href="#SVGID_1_"  style="overflow:visible;"/>
		</clipPath>
		<clipPath id="SVGID_4_" class="st3">
			<use xlink:href="#SVGID_2_"  style="overflow:visible;"/>
		</clipPath>
		<path class="st4" d="M115.8,28.4H95.3l-5.1,6.4 M100,44.4H78.9l-4.5,6.4 M90.2,28.5H69.7l-5.1,6.4 M111.5,41.2H90.4l-4.5,6.4
			 M99.8,22h-16l-16,19.2H42.2 M104.9,38H87L74.2,57.2h-32"/>
		<path class="st5" d="M42.2,34.8H72L88,54h13.8 M106.2,25.2H77.4L58.2,47.6h-16"/>
		<path class="st6" d="M109.4,34.8H83.8l-6.4,9.6H42.2 M119,54h-12.8l-6.4-6.4H58.2"/>
		<polyline class="st4" points="122.2,60.4 103,60.4 93.4,50.8 42.2,50.8 		"/>
	</g>
	<g>
		<defs>
			<rect id="SVGID_5_" x="33.5" y="8.3" width="101.1" height="63.7"/>
		</defs>
		<defs>
			<rect id="SVGID_6_" x="33.5" y="8.3" width="101.1" height="63.7"/>
		</defs>
		<defs>
			<path id="SVGID_7_" d="M96.2,68.1c15.2,0,27.4-12.3,27.4-27.4c0-15.2-12.3-27.4-27.4-27.4c-15.2,0-27.4,12.3-27.4,27.4
				C68.7,55.8,81,68.1,96.2,68.1L96.2,68.1z"/>
		</defs>
		<clipPath id="SVGID_8_">
			<use xlink:href="#SVGID_5_"  style="overflow:visible;"/>
		</clipPath>
		<clipPath id="SVGID_9_" class="st7">
			<use xlink:href="#SVGID_6_"  style="overflow:visible;"/>
		</clipPath>
		<clipPath id="SVGID_10_" class="st8">
			<use xlink:href="#SVGID_7_"  style="overflow:visible;"/>
		</clipPath>
		<path class="st9" d="M101.6,22c0,0.7-0.6,1.3-1.3,1.3c-0.7,0-1.3-0.6-1.3-1.3s0.6-1.3,1.3-1.3C101,20.7,101.6,21.3,101.6,22"/>
		<path class="st10" d="M101.6,22c0,0.7-0.6,1.3-1.3,1.3c-0.7,0-1.3-0.6-1.3-1.3s0.6-1.3,1.3-1.3C101,20.7,101.6,21.3,101.6,22
			L101.6,22z"/>
		<path class="st9" d="M106.2,38c0,0.7-0.6,1.3-1.3,1.3c-0.7,0-1.3-0.6-1.3-1.3c0-0.7,0.6-1.3,1.3-1.3
			C105.6,36.7,106.2,37.3,106.2,38"/>
		<path class="st10" d="M106.2,38c0,0.7-0.6,1.3-1.3,1.3c-0.7,0-1.3-0.6-1.3-1.3c0-0.7,0.6-1.3,1.3-1.3
			C105.6,36.7,106.2,37.3,106.2,38L106.2,38z"/>
		<path class="st9" d="M123.5,60.3c0,0.7-0.6,1.3-1.3,1.3c-0.7,0-1.3-0.6-1.3-1.3s0.6-1.3,1.3-1.3C122.9,59,123.5,59.6,123.5,60.3"
			/>
		<path class="st10" d="M123.5,60.3c0,0.7-0.6,1.3-1.3,1.3c-0.7,0-1.3-0.6-1.3-1.3s0.6-1.3,1.3-1.3C122.9,59,123.5,59.6,123.5,60.3
			L123.5,60.3z"/>
		<path class="st9" d="M108.1,25.2c0,1.1-0.9,1.9-1.9,1.9c-1.1,0-1.9-0.9-1.9-1.9s0.9-1.9,1.9-1.9C107.3,23.3,108.1,24.2,108.1,25.2
			"/>
		<path class="st11" d="M108.1,25.2c0,1.1-0.9,1.9-1.9,1.9c-1.1,0-1.9-0.9-1.9-1.9s0.9-1.9,1.9-1.9
			C107.3,23.3,108.1,24.2,108.1,25.2L108.1,25.2z"/>
		<path class="st9" d="M111.3,34.8c0,1.1-0.9,1.9-1.9,1.9c-1.1,0-1.9-0.9-1.9-1.9s0.9-1.9,1.9-1.9C110.5,32.9,111.3,33.8,111.3,34.8
			"/>
		<path class="st11" d="M111.3,34.8c0,1.1-0.9,1.9-1.9,1.9c-1.1,0-1.9-0.9-1.9-1.9s0.9-1.9,1.9-1.9
			C110.5,32.9,111.3,33.8,111.3,34.8L111.3,34.8z"/>
		<path class="st9" d="M120.9,54c0,1.1-0.9,1.9-1.9,1.9s-1.9-0.9-1.9-1.9c0-1.1,0.9-1.9,1.9-1.9S120.9,53,120.9,54"/>
		<path class="st12" d="M120.9,54c0,1.1-0.9,1.9-1.9,1.9s-1.9-0.9-1.9-1.9c0-1.1,0.9-1.9,1.9-1.9S120.9,53,120.9,54L120.9,54z"/>
		<path class="st13" d="M102.9,54c0,0.7-0.6,1.3-1.3,1.3c-0.7,0-1.3-0.6-1.3-1.3c0-0.7,0.6-1.3,1.3-1.3
			C102.3,52.7,102.9,53.3,102.9,54"/>
		<path class="st13" d="M117.2,28.4c0,0.7-0.6,1.3-1.3,1.3c-0.7,0-1.3-0.6-1.3-1.3s0.6-1.3,1.3-1.3
			C116.6,27.1,117.2,27.7,117.2,28.4"/>
		<path class="st13" d="M101.4,44.4c0,0.7-0.6,1.3-1.3,1.3c-0.7,0-1.3-0.6-1.3-1.3s0.6-1.3,1.3-1.3
			C100.8,43.1,101.4,43.7,101.4,44.4"/>
		<path class="st13" d="M91.6,28.5c0,0.7-0.6,1.3-1.3,1.3s-1.3-0.6-1.3-1.3c0-0.7,0.6-1.3,1.3-1.3S91.6,27.7,91.6,28.5"/>
		<path class="st13" d="M112.8,41.2c0,0.7-0.6,1.3-1.3,1.3c-0.7,0-1.3-0.6-1.3-1.3s0.6-1.3,1.3-1.3
			C112.2,39.9,112.8,40.5,112.8,41.2"/>
	</g>
	<text transform="matrix(1 0 0 1 16.3855 186.7229)" class="st0 st14 st15">SOUTHERN OREGON UNIVERSIT</text>
	<text transform="matrix(1 0 0 1 363.6277 186.7229)" class="st0 st14 st15">Y</text>
	<polygon class="st2" points="16.8,158.5 16.8,161.5 376.8,161.5 376.8,158.5 16.8,158.5 	"/>
</g>
</svg>
