<?xml version="1.0" encoding="utf-8"?>
<!-- Generator: Adobe Illustrator 24.3.0, SVG Export Plug-In . SVG Version: 6.00 Build 0)  -->
<svg version="1.1" id="Layer_1" xmlns="http://www.w3.org/2000/svg" xmlns:xlink="http://www.w3.org/1999/xlink" x="0px" y="0px"
	 viewBox="0 0 475 164" style="enable-background:new 0 0 475 164;" xml:space="preserve">
<style type="text/css">
	.st0{fill:#231F20;}
	.st1{fill:none;stroke:#231F20;stroke-width:1.5;}
	.st2{fill:#ED1C24;}
	.st3{clip-path:url(#SVGID_3_);}
	.st4{clip-path:url(#SVGID_4_);fill:none;stroke:#FFFFFF;stroke-width:1.693;stroke-linejoin:round;stroke-miterlimit:10;}
	.st5{clip-path:url(#SVGID_4_);fill:none;stroke:#FFFFFF;stroke-width:2.5395;stroke-linejoin:round;stroke-miterlimit:10;}
	.st6{clip-path:url(#SVGID_4_);fill:none;stroke:#FFFFFF;stroke-width:3.386;stroke-linejoin:round;stroke-miterlimit:10;}
	.st7{clip-path:url(#SVGID_8_);}
	.st8{clip-path:url(#SVGID_9_);}
	.st9{clip-path:url(#SVGID_10_);fill:#ED1C24;}
	.st10{clip-path:url(#SVGID_10_);fill:none;stroke:#FFFFFF;stroke-width:1.693;stroke-miterlimit:10;}
	.st11{clip-path:url(#SVGID_10_);fill:none;stroke:#FFFFFF;stroke-width:2.5395;stroke-miterlimit:10;}
	.st12{clip-path:url(#SVGID_10_);fill:none;stroke:#FFFFFF;stroke-width:3.386;stroke-miterlimit:10;}
	.st13{clip-path:url(#SVGID_10_);fill:#FFFFFF;}
</style>
<g>
	<path class="st0" d="M202.2,72.8c-2.6-4.7-7.8-7.7-13.3-7.7c-8.2,0-13.9,5.7-13.9,13.8c0,4.3,2,7.5,5.6,9.7l9.8,5.2
		c4.7,2.3,11,4.9,11,11c0,7.2-6.3,12.8-13.4,12.8c-6.6,0-10.8-4-13.1-9.8l-3,1.4c2.5,7,8.4,11.7,16,11.7c8.8,0,17-6.8,17-15.8
		c0-4.9-2.1-8.2-6.2-10.8L188.3,89c-4.4-2.1-9.8-4.5-9.8-10.2c0-5.7,4.4-10.4,10.2-10.4c5.1,0,8.6,2.5,11,6.4L202.2,72.8L202.2,72.8
		z M257,72.2c-4.8-4.5-11.5-7.1-18-7.1c-15.4,0-28.4,12.6-28.4,28c0,15.2,13.2,27.9,28.4,27.9c6.7,0,13-2.5,18.1-6.8v-4.8
		c-4,4.9-12,8.3-18.3,8.3c-6.4,0-12.9-3.2-17.5-7.5c-4.5-4.5-7.3-10.5-7.3-16.8c0-13.4,11.2-25,24.7-25c6.7,0,14.1,3.5,18.3,8.6
		V72.2L257,72.2z M270.6,65.9h-3.5v54.4h3.5V65.9L270.6,65.9z M308.2,69.1v-3.2h-26v54.4h26V117h-22.5V92.1h21.9v-3.2h-21.9V69.1
		H308.2L308.2,69.1z M368,65.9h-3.5v47.5l-45.7-48.2v55.1h3.5V73.5l45.7,48.6V65.9L368,65.9z M422.9,72.2c-4.8-4.5-11.5-7.1-18-7.1
		c-15.4,0-28.4,12.6-28.4,28c0,15.2,13.2,27.9,28.4,27.9c6.7,0,13-2.5,18.1-6.8v-4.8c-4,4.9-12,8.3-18.3,8.3
		c-6.4,0-12.9-3.2-17.5-7.5c-4.5-4.5-7.3-10.5-7.3-16.8c0-13.4,11.2-25,24.7-25c6.7,0,14.1,3.5,18.3,8.6V72.2L422.9,72.2z
		 M458.9,69.1v-3.2h-26v54.4h26V117h-22.5V92.1h21.9v-3.2h-21.9V69.1H458.9L458.9,69.1z"/>
	<path class="st1" d="M202.2,72.8c-2.6-4.7-7.8-7.7-13.3-7.7c-8.2,0-13.9,5.7-13.9,13.8c0,4.3,2,7.5,5.6,9.7l9.8,5.2
		c4.7,2.3,11,4.9,11,11c0,7.2-6.3,12.8-13.4,12.8c-6.6,0-10.8-4-13.1-9.8l-3,1.4c2.5,7,8.4,11.7,16,11.7c8.8,0,17-6.8,17-15.8
		c0-4.9-2.1-8.2-6.2-10.8L188.3,89c-4.4-2.1-9.8-4.5-9.8-10.2c0-5.7,4.4-10.4,10.2-10.4c5.1,0,8.6,2.5,11,6.4L202.2,72.8L202.2,72.8
		z M257,72.2c-4.8-4.5-11.5-7.1-18-7.1c-15.4,0-28.4,12.6-28.4,28c0,15.2,13.2,27.9,28.4,27.9c6.7,0,13-2.5,18.1-6.8v-4.8
		c-4,4.9-12,8.3-18.3,8.3c-6.4,0-12.9-3.2-17.5-7.5c-4.5-4.5-7.3-10.5-7.3-16.8c0-13.4,11.2-25,24.7-25c6.7,0,14.1,3.5,18.3,8.6
		V72.2L257,72.2z M270.6,65.9h-3.5v54.4h3.5V65.9L270.6,65.9z M308.2,69.1v-3.2h-26v54.4h26V117h-22.5V92.1h21.9v-3.2h-21.9V69.1
		H308.2L308.2,69.1z M368,65.9h-3.5v47.5l-45.7-48.2v55.1h3.5V73.5l45.7,48.6V65.9L368,65.9z M422.9,72.2c-4.8-4.5-11.5-7.1-18-7.1
		c-15.4,0-28.4,12.6-28.4,28c0,15.2,13.2,27.9,28.4,27.9c6.7,0,13-2.5,18.1-6.8v-4.8c-4,4.9-12,8.3-18.3,8.3
		c-6.4,0-12.9-3.2-17.5-7.5c-4.5-4.5-7.3-10.5-7.3-16.8c0-13.4,11.2-25,24.7-25c6.7,0,14.1,3.5,18.3,8.6V72.2L422.9,72.2z
		 M458.9,69.1v-3.2h-26v54.4h26V117h-22.5V92.1h21.9v-3.2h-21.9V69.1H458.9L458.9,69.1z"/>
	<path class="st0" d="M210.2,16.6c-3.7-2.8-7.9-4.1-12.5-4.1c-12,0-21.9,9.9-21.9,21.9c0,11.9,10,21.6,21.9,21.6
		c4.5,0,8.9-1.5,12.5-4.1V46c-3.3,3.3-8,5.6-12.7,5.6c-9.4,0-17.1-8.1-17.1-17.4c0-9.3,7.6-17.4,16.9-17.4c4.8,0,9.5,2.1,12.8,5.6
		V16.6L210.2,16.6z M237.9,12.5c-12,0-21.9,9.8-21.9,21.8c0,12.1,9.9,21.7,21.9,21.7c12,0,21.9-9.6,21.9-21.7
		C259.8,22.2,249.9,12.5,237.9,12.5L237.9,12.5z M237.9,16.8c9.6,0,17.2,7.9,17.2,17.4c0,9.5-7.7,17.4-17.2,17.4
		c-9.5,0-17.2-7.9-17.2-17.4C220.7,24.7,228.3,16.8,237.9,16.8L237.9,16.8z M263.1,55.2h4.8l5.4-28.4h0.1l13.5,30.2l13.5-30.2h0.1
		l5.4,28.4h4.8l-8.5-44.4l-15.3,35.3l-15.3-35.3L263.1,55.2L263.1,55.2z M320.8,36.8h3.4c3.5,0,7.1-0.4,10-2.8c2.6-2.2,4-5.6,4-9
		c0-3.7-1.6-7.4-4.7-9.6c-3.1-2.1-6.8-2.2-10.4-2.2h-6.9v42h4.7V36.8L320.8,36.8z M320.8,17.5h1.7c5.5,0,11,0.5,11,7.4
		c0,6-4.4,7.6-9.6,7.6h-3.1V17.5L320.8,17.5z M348.7,13.2h-4.7v26.3c0,4.8,0.4,8.6,4.1,12.2c2.8,2.8,6.9,4.3,10.9,4.3
		c4.2,0,8.4-1.7,11.3-4.8c3.3-3.5,3.7-7.1,3.7-11.6V13.2h-4.7v25c0,3.3,0.2,7-2.1,9.6c-2,2.3-5.2,3.7-8.2,3.7c-3.1,0-6.6-1.4-8.5-4
		c-2-2.7-1.8-6.2-1.8-9.4V13.2L348.7,13.2z M393.5,17.5h10.3v-4.3h-25.1v4.3h10.1v37.7h4.7V17.5L393.5,17.5z M408.6,55.2h21.8v-4.3
		h-17.1V34.4h16.6V30h-16.6V17.5h17.1v-4.3h-21.8V55.2L408.6,55.2z M443,17.5h1.4c5.6,0,10.7,0.7,10.7,7.6c0,6.5-5.4,7.5-10.6,7.5
		H443V17.5L443,17.5z M443,36.8h1.2l12.7,18.5h5.7l-13.4-18.8c6.5-0.6,10.5-5.1,10.5-11.6c0-9.5-7.4-11.6-15.4-11.6h-6.1v42h4.7
		V36.8L443,36.8z"/>
	<path class="st2" d="M86.6,155.2c40.1,0,72.6-32.5,72.6-72.6c0-40.1-32.5-72.6-72.6-72.6S14,42.5,14,82.6
		C14,122.7,46.5,155.2,86.6,155.2L86.6,155.2z"/>
	<g>
		<defs>
			<rect id="SVGID_1_" x="-79.3" y="-3.1" width="267.5" height="168.5"/>
		</defs>
		<defs>
			<path id="SVGID_2_" d="M86.6,155.2c40.1,0,72.6-32.5,72.6-72.6c0-40.1-32.5-72.6-72.6-72.6S14,42.5,14,82.6
				C14,122.7,46.5,155.2,86.6,155.2L86.6,155.2z"/>
		</defs>
		<clipPath id="SVGID_3_">
			<use xlink:href="#SVGID_1_"  style="overflow:visible;"/>
		</clipPath>
		<clipPath id="SVGID_4_" class="st3">
			<use xlink:href="#SVGID_2_"  style="overflow:visible;"/>
		</clipPath>
		<path class="st4" d="M138.5,50.3H84.4L70.8,67.2 M96.8,92.6H40.9l-11.9,16.9 M70.8,50.4H16.6L3.1,67.4 M127.1,84.2H71.2
			l-11.9,16.9 M96.2,33.3H53.9L11.6,84.1h-67.7 M109.8,75.7H62.4l-33.9,50.8h-84.7"/>
		<path class="st5" d="M-56.2,67.2h78.7L64.9,118h36.4 M113.1,41.8H37l-50.8,59.3h-42.3"/>
		<path class="st6" d="M121.6,67.2H53.9L37,92.6h-93.1 M147,118h-33.9l-16.9-16.9h-110"/>
		<polyline class="st4" points="155.5,134.9 104.7,134.9 79.3,109.5 -56.2,109.5 		"/>
	</g>
	<g>
		<defs>
			<rect id="SVGID_5_" x="-79.3" y="-3.1" width="267.5" height="168.5"/>
		</defs>
		<defs>
			<rect id="SVGID_6_" x="-79.3" y="-3.1" width="267.5" height="168.5"/>
		</defs>
		<defs>
			<path id="SVGID_7_" d="M86.6,155.2c40.1,0,72.6-32.5,72.6-72.6c0-40.1-32.5-72.6-72.6-72.6S14,42.5,14,82.6
				C14,122.7,46.5,155.2,86.6,155.2L86.6,155.2z"/>
		</defs>
		<clipPath id="SVGID_8_">
			<use xlink:href="#SVGID_5_"  style="overflow:visible;"/>
		</clipPath>
		<clipPath id="SVGID_9_" class="st7">
			<use xlink:href="#SVGID_6_"  style="overflow:visible;"/>
		</clipPath>
		<clipPath id="SVGID_10_" class="st8">
			<use xlink:href="#SVGID_7_"  style="overflow:visible;"/>
		</clipPath>
		<path class="st9" d="M100.9,33.3c0,2-1.6,3.6-3.6,3.6s-3.6-1.6-3.6-3.6c0-2,1.6-3.6,3.6-3.6S100.9,31.4,100.9,33.3"/>
		<path class="st10" d="M100.9,33.3c0,2-1.6,3.6-3.6,3.6s-3.6-1.6-3.6-3.6c0-2,1.6-3.6,3.6-3.6S100.9,31.4,100.9,33.3L100.9,33.3z"
			/>
		<path class="st9" d="M113.1,75.7c0,2-1.6,3.6-3.6,3.6c-2,0-3.6-1.6-3.6-3.6c0-2,1.6-3.6,3.6-3.6C111.6,72.1,113.1,73.7,113.1,75.7
			"/>
		<path class="st10" d="M113.1,75.7c0,2-1.6,3.6-3.6,3.6c-2,0-3.6-1.6-3.6-3.6c0-2,1.6-3.6,3.6-3.6
			C111.6,72.1,113.1,73.7,113.1,75.7L113.1,75.7z"/>
		<path class="st9" d="M158.9,134.8c0,2-1.6,3.6-3.6,3.6c-2,0-3.6-1.6-3.6-3.6c0-2,1.6-3.6,3.6-3.6
			C157.3,131.2,158.9,132.8,158.9,134.8"/>
		<path class="st10" d="M158.9,134.8c0,2-1.6,3.6-3.6,3.6c-2,0-3.6-1.6-3.6-3.6c0-2,1.6-3.6,3.6-3.6
			C157.3,131.2,158.9,132.8,158.9,134.8L158.9,134.8z"/>
		<path class="st9" d="M118.2,41.8c0,2.8-2.3,5.1-5.1,5.1c-2.8,0-5.1-2.3-5.1-5.1c0-2.8,2.3-5.1,5.1-5.1
			C115.9,36.7,118.2,39,118.2,41.8"/>
		<path class="st11" d="M118.2,41.8c0,2.8-2.3,5.1-5.1,5.1c-2.8,0-5.1-2.3-5.1-5.1c0-2.8,2.3-5.1,5.1-5.1
			C115.9,36.7,118.2,39,118.2,41.8L118.2,41.8z"/>
		<path class="st9" d="M126.7,67.2c0,2.8-2.3,5.1-5.1,5.1c-2.8,0-5.1-2.3-5.1-5.1c0-2.8,2.3-5.1,5.1-5.1
			C124.4,62.1,126.7,64.4,126.7,67.2"/>
		<path class="st11" d="M126.7,67.2c0,2.8-2.3,5.1-5.1,5.1c-2.8,0-5.1-2.3-5.1-5.1c0-2.8,2.3-5.1,5.1-5.1
			C124.4,62.1,126.7,64.4,126.7,67.2L126.7,67.2z"/>
		<path class="st9" d="M152.1,118c0,2.8-2.3,5.1-5.1,5.1c-2.8,0-5.1-2.3-5.1-5.1c0-2.8,2.3-5.1,5.1-5.1
			C149.8,112.9,152.1,115.2,152.1,118"/>
		<path class="st12" d="M152.1,118c0,2.8-2.3,5.1-5.1,5.1c-2.8,0-5.1-2.3-5.1-5.1c0-2.8,2.3-5.1,5.1-5.1
			C149.8,112.9,152.1,115.2,152.1,118L152.1,118z"/>
		<path class="st13" d="M104.3,118c0,2-1.6,3.6-3.6,3.6c-2,0-3.6-1.6-3.6-3.6s1.6-3.6,3.6-3.6C102.7,114.4,104.3,116,104.3,118"/>
		<path class="st13" d="M142.1,50.3c0,2-1.6,3.6-3.6,3.6c-2,0-3.6-1.6-3.6-3.6c0-2,1.6-3.6,3.6-3.6
			C140.5,46.7,142.1,48.3,142.1,50.3"/>
		<path class="st13" d="M100.4,92.6c0,2-1.6,3.6-3.6,3.6s-3.6-1.6-3.6-3.6c0-2,1.6-3.6,3.6-3.6S100.4,90.6,100.4,92.6"/>
		<path class="st13" d="M74.4,50.4c0,2-1.6,3.6-3.6,3.6c-2,0-3.6-1.6-3.6-3.6s1.6-3.6,3.6-3.6C72.8,46.9,74.4,48.5,74.4,50.4"/>
		<path class="st13" d="M130.7,84.2c0,2-1.6,3.6-3.6,3.6c-2,0-3.6-1.6-3.6-3.6c0-2,1.6-3.6,3.6-3.6
			C129.1,80.7,130.7,82.3,130.7,84.2"/>
	</g>
	<path class="st0" d="M181.8,142c-0.6-0.3-1.2-0.5-1.8-0.7c-0.6-0.2-1.2-0.2-1.8-0.2c-0.6,0-1.2,0.1-1.7,0.3
		c-0.5,0.2-0.9,0.4-1.3,0.8c-0.3,0.3-0.6,0.7-0.8,1.2c-0.2,0.5-0.3,1-0.3,1.6c0,0.6,0.1,1,0.3,1.4c0.2,0.4,0.4,0.7,0.7,0.9
		c0.3,0.2,0.6,0.4,1,0.6c0.4,0.1,0.8,0.3,1.1,0.4c0.3,0.1,0.6,0.2,0.8,0.3c0.2,0.1,0.4,0.2,0.6,0.3c0.1,0.1,0.2,0.2,0.3,0.4
		c0.1,0.1,0.1,0.3,0.1,0.5c0,0.3-0.1,0.5-0.4,0.8c-0.2,0.2-0.6,0.3-1.1,0.3c-0.4,0-0.9-0.1-1.3-0.3c-0.4-0.2-0.9-0.5-1.3-0.9
		l-1.3,2.4c1.3,0.9,2.6,1.3,4.1,1.3c0.7,0,1.3-0.1,1.9-0.3c0.6-0.2,1-0.5,1.4-0.8c0.4-0.3,0.7-0.8,0.9-1.2c0.2-0.5,0.3-1,0.3-1.6
		c0-0.9-0.2-1.6-0.7-2.1c-0.5-0.5-1.2-1-2.2-1.3c-0.2-0.1-0.5-0.2-0.7-0.2c-0.3-0.1-0.5-0.2-0.7-0.3c-0.2-0.1-0.4-0.2-0.5-0.3
		c-0.1-0.1-0.2-0.3-0.2-0.5c0-0.3,0.1-0.5,0.4-0.7c0.2-0.2,0.6-0.3,1-0.3c0.3,0,0.6,0.1,1,0.2c0.3,0.1,0.7,0.3,1,0.6L181.8,142
		L181.8,142z M187.7,145.9c0.2-0.4,0.4-0.7,0.7-1c0.3-0.3,0.6-0.5,1-0.7c0.4-0.2,0.8-0.2,1.3-0.2c0.4,0,0.9,0.1,1.3,0.2
		s0.7,0.4,1,0.7c0.3,0.3,0.5,0.6,0.7,1c0.2,0.4,0.3,0.8,0.3,1.3c0,0.5-0.1,0.9-0.3,1.3c-0.2,0.4-0.4,0.7-0.7,1
		c-0.3,0.3-0.7,0.5-1,0.7c-0.4,0.2-0.8,0.2-1.3,0.2c-0.4,0-0.9-0.1-1.3-0.2c-0.4-0.2-0.7-0.4-1-0.7c-0.3-0.3-0.5-0.6-0.7-1
		c-0.2-0.4-0.3-0.8-0.3-1.3C187.4,146.8,187.5,146.3,187.7,145.9L187.7,145.9z M184.7,149.6c0.3,0.7,0.8,1.4,1.3,1.9
		c0.6,0.6,1.2,1,2,1.3c0.8,0.3,1.6,0.5,2.6,0.5c0.9,0,1.8-0.2,2.6-0.5c0.8-0.3,1.5-0.7,2-1.3c0.6-0.6,1-1.2,1.3-1.9
		c0.3-0.7,0.5-1.5,0.5-2.4c0-0.9-0.2-1.7-0.5-2.4c-0.3-0.7-0.8-1.4-1.3-1.9c-0.6-0.6-1.2-1-2-1.3c-0.8-0.3-1.7-0.5-2.6-0.5
		c-0.9,0-1.8,0.2-2.6,0.5c-0.8,0.3-1.5,0.7-2,1.3c-0.6,0.6-1,1.2-1.3,1.9c-0.3,0.7-0.5,1.5-0.5,2.4
		C184.2,148.1,184.4,148.9,184.7,149.6L184.7,149.6z M199.6,141.4v6.7c0,1.8,0.4,3.1,1.2,4c0.8,0.8,2.1,1.2,3.8,1.2
		c1.7,0,3-0.4,3.8-1.2c0.8-0.8,1.2-2.1,1.2-4v-6.7h-3v6.3c0,0.3,0,0.7,0,1c0,0.4-0.1,0.7-0.2,1c-0.1,0.3-0.3,0.5-0.6,0.7
		c-0.3,0.2-0.7,0.3-1.2,0.3c-0.5,0-0.9-0.1-1.2-0.3c-0.3-0.2-0.5-0.4-0.6-0.7c-0.1-0.3-0.2-0.6-0.2-1c0-0.4,0-0.7,0-1v-6.3H199.6
		L199.6,141.4z M219.7,144v-2.6h-8v2.6h2.5v9h3v-9H219.7L219.7,144z M224.6,141.4h-3V153h3v-4.8h4.4v4.8h3v-11.6h-3v4.5h-4.4V141.4
		L224.6,141.4z M241.6,141.4H235V153h6.6v-2.6h-3.6v-2h3.4v-2.6h-3.4V144h3.6V141.4L241.6,141.4z M247.4,143.7h0.6
		c0.6,0,1.1,0.1,1.4,0.4c0.3,0.2,0.5,0.6,0.5,1.1c0,0.5-0.2,0.8-0.5,1.1c-0.3,0.2-0.8,0.4-1.4,0.4h-0.6V143.7L247.4,143.7z
		 M250.4,148.3c0.8-0.2,1.5-0.6,1.9-1.1c0.4-0.5,0.6-1.3,0.6-2.1c0-0.5-0.1-1-0.2-1.4c-0.2-0.4-0.4-0.8-0.7-1.1
		c-0.3-0.3-0.7-0.6-1.2-0.8s-1-0.3-1.7-0.3h-4.7V153h3v-4.5l2.9,4.5h3.8L250.4,148.3L250.4,148.3z M259,153v-7.1l5.6,7.1h3v-11.6h-3
		v7.1l-5.6-7.1h-3V153H259L259,153z M279.3,145.9c0.2-0.4,0.4-0.7,0.7-1c0.3-0.3,0.6-0.5,1-0.7c0.4-0.2,0.8-0.2,1.3-0.2
		s0.9,0.1,1.3,0.2c0.4,0.2,0.7,0.4,1,0.7c0.3,0.3,0.5,0.6,0.7,1c0.2,0.4,0.3,0.8,0.3,1.3c0,0.5-0.1,0.9-0.3,1.3
		c-0.2,0.4-0.4,0.7-0.7,1c-0.3,0.3-0.7,0.5-1,0.7c-0.4,0.2-0.8,0.2-1.3,0.2s-0.9-0.1-1.3-0.2c-0.4-0.2-0.7-0.4-1-0.7
		c-0.3-0.3-0.5-0.6-0.7-1c-0.2-0.4-0.3-0.8-0.3-1.3C279.1,146.8,279.2,146.3,279.3,145.9L279.3,145.9z M276.4,149.6
		c0.3,0.7,0.8,1.4,1.3,1.9c0.6,0.6,1.2,1,2,1.3c0.8,0.3,1.6,0.5,2.6,0.5c0.9,0,1.8-0.2,2.6-0.5c0.8-0.3,1.5-0.7,2-1.3
		c0.6-0.6,1-1.2,1.3-1.9c0.3-0.7,0.5-1.5,0.5-2.4c0-0.9-0.2-1.7-0.5-2.4c-0.3-0.7-0.8-1.4-1.3-1.9c-0.6-0.6-1.3-1-2-1.3
		c-0.8-0.3-1.7-0.5-2.6-0.5c-0.9,0-1.8,0.2-2.6,0.5c-0.8,0.3-1.5,0.7-2,1.3c-0.6,0.6-1,1.2-1.3,1.9c-0.3,0.7-0.5,1.5-0.5,2.4
		C275.9,148.1,276.1,148.9,276.4,149.6L276.4,149.6z M294.3,143.7h0.6c0.6,0,1.1,0.1,1.4,0.4c0.3,0.2,0.5,0.6,0.5,1.1
		c0,0.5-0.2,0.8-0.5,1.1c-0.3,0.2-0.8,0.4-1.4,0.4h-0.6V143.7L294.3,143.7z M297.3,148.3c0.8-0.2,1.5-0.6,1.9-1.1
		c0.4-0.5,0.6-1.3,0.6-2.1c0-0.5-0.1-1-0.2-1.4c-0.2-0.4-0.4-0.8-0.7-1.1c-0.3-0.3-0.7-0.6-1.2-0.8c-0.5-0.2-1-0.3-1.7-0.3h-4.7V153
		h3v-4.5l2.9,4.5h3.8L297.3,148.3L297.3,148.3z M309.4,141.4h-6.6V153h6.6v-2.6h-3.6v-2h3.4v-2.6h-3.4V144h3.6V141.4L309.4,141.4z
		 M317.8,148.9h2.5c-0.1,0.3-0.1,0.6-0.3,0.9c-0.1,0.2-0.3,0.4-0.5,0.6c-0.2,0.1-0.5,0.3-0.7,0.3c-0.3,0.1-0.6,0.1-0.9,0.1
		c-0.5,0-0.9-0.1-1.3-0.3c-0.4-0.2-0.7-0.4-1-0.7c-0.3-0.3-0.4-0.7-0.6-1.1c-0.1-0.4-0.2-0.9-0.2-1.4c0-0.5,0.1-1,0.2-1.5
		c0.1-0.4,0.4-0.8,0.6-1.1c0.3-0.3,0.6-0.6,0.9-0.7c0.4-0.2,0.8-0.3,1.2-0.3c0.5,0,1,0.1,1.5,0.4c0.4,0.3,0.8,0.7,1,1.4l2.9-1.2
		c-0.5-1.1-1.3-1.9-2.2-2.4c-0.9-0.5-2-0.8-3.2-0.8c-0.9,0-1.8,0.1-2.5,0.4c-0.8,0.3-1.4,0.7-1.9,1.2c-0.5,0.5-1,1.2-1.2,1.9
		c-0.3,0.8-0.4,1.6-0.4,2.5c0,0.9,0.1,1.7,0.4,2.5c0.3,0.8,0.7,1.4,1.2,1.9c0.5,0.5,1.2,1,1.9,1.3c0.7,0.3,1.6,0.4,2.5,0.4
		c0.7,0,1.3-0.1,1.9-0.2c0.6-0.2,1.1-0.4,1.6-0.7c0.5-0.3,0.9-0.7,1.3-1.2c0.4-0.5,0.7-1,0.9-1.6c0.2-0.4,0.3-0.9,0.3-1.4
		c0.1-0.5,0.1-1.1,0.1-1.7h-6V148.9L317.8,148.9z M329.2,145.9c0.2-0.4,0.4-0.7,0.7-1c0.3-0.3,0.6-0.5,1-0.7
		c0.4-0.2,0.8-0.2,1.3-0.2c0.4,0,0.9,0.1,1.3,0.2s0.7,0.4,1,0.7c0.3,0.3,0.5,0.6,0.7,1c0.2,0.4,0.3,0.8,0.3,1.3
		c0,0.5-0.1,0.9-0.3,1.3c-0.2,0.4-0.4,0.7-0.7,1c-0.3,0.3-0.7,0.5-1,0.7c-0.4,0.2-0.8,0.2-1.3,0.2c-0.4,0-0.9-0.1-1.3-0.2
		c-0.4-0.2-0.7-0.4-1-0.7c-0.3-0.3-0.5-0.6-0.7-1c-0.2-0.4-0.3-0.8-0.3-1.3C329,146.8,329.1,146.3,329.2,145.9L329.2,145.9z
		 M326.3,149.6c0.3,0.7,0.8,1.4,1.3,1.9c0.6,0.6,1.2,1,2,1.3c0.8,0.3,1.6,0.5,2.6,0.5c0.9,0,1.8-0.2,2.6-0.5c0.8-0.3,1.5-0.7,2-1.3
		c0.6-0.6,1-1.2,1.3-1.9c0.3-0.7,0.5-1.5,0.5-2.4c0-0.9-0.2-1.7-0.5-2.4c-0.3-0.7-0.8-1.4-1.3-1.9c-0.6-0.6-1.2-1-2-1.3
		c-0.8-0.3-1.7-0.5-2.6-0.5c-0.9,0-1.8,0.2-2.6,0.5c-0.8,0.3-1.5,0.7-2,1.3c-0.6,0.6-1,1.2-1.3,1.9c-0.3,0.7-0.5,1.5-0.5,2.4
		C325.8,148.1,326,148.9,326.3,149.6L326.3,149.6z M344.2,153v-7.1l5.6,7.1h3v-11.6h-3v7.1l-5.6-7.1h-3V153H344.2L344.2,153z
		 M361.7,141.4v6.7c0,1.8,0.4,3.1,1.2,4c0.8,0.8,2.1,1.2,3.8,1.2c1.7,0,3-0.4,3.8-1.2c0.8-0.8,1.2-2.1,1.2-4v-6.7h-3v6.3
		c0,0.3,0,0.7,0,1c0,0.4-0.1,0.7-0.2,1c-0.1,0.3-0.3,0.5-0.6,0.7c-0.3,0.2-0.7,0.3-1.2,0.3c-0.5,0-0.9-0.1-1.2-0.3
		c-0.3-0.2-0.5-0.4-0.6-0.7c-0.1-0.3-0.2-0.6-0.2-1c0-0.4,0-0.7,0-1v-6.3H361.7L361.7,141.4z M377.9,153v-7.1l5.6,7.1h3v-11.6h-3
		v7.1l-5.6-7.1h-3V153H377.9L377.9,153z M389.5,141.4V153h3v-11.6H389.5L389.5,141.4z M394.3,141.4l4.9,11.6h2.4l4.9-11.6h-3.3
		l-2.8,7.1l-2.8-7.1H394.3L394.3,141.4z M414.9,141.4h-6.6V153h6.6v-2.6h-3.6v-2h3.4v-2.6h-3.4V144h3.6V141.4L414.9,141.4z
		 M420.7,143.7h0.6c0.6,0,1.1,0.1,1.4,0.4c0.3,0.2,0.5,0.6,0.5,1.1c0,0.5-0.2,0.8-0.5,1.1c-0.3,0.2-0.8,0.4-1.4,0.4h-0.6V143.7
		L420.7,143.7z M423.7,148.3c0.8-0.2,1.5-0.6,1.9-1.1c0.4-0.5,0.6-1.3,0.6-2.1c0-0.5-0.1-1-0.2-1.4c-0.2-0.4-0.4-0.8-0.7-1.1
		c-0.3-0.3-0.7-0.6-1.2-0.8c-0.5-0.2-1-0.3-1.7-0.3h-4.7V153h3v-4.5l2.9,4.5h3.8L423.7,148.3L423.7,148.3z M436.8,142
		c-0.6-0.3-1.2-0.5-1.8-0.7c-0.6-0.2-1.2-0.2-1.8-0.2c-0.6,0-1.2,0.1-1.7,0.3c-0.5,0.2-0.9,0.4-1.3,0.8c-0.3,0.3-0.6,0.7-0.8,1.2
		c-0.2,0.5-0.3,1-0.3,1.6c0,0.6,0.1,1,0.3,1.4c0.2,0.4,0.4,0.7,0.7,0.9c0.3,0.2,0.6,0.4,1,0.6c0.4,0.1,0.8,0.3,1.1,0.4
		c0.3,0.1,0.6,0.2,0.8,0.3c0.2,0.1,0.4,0.2,0.6,0.3c0.1,0.1,0.2,0.2,0.3,0.4c0.1,0.1,0.1,0.3,0.1,0.5c0,0.3-0.1,0.5-0.4,0.8
		c-0.2,0.2-0.6,0.3-1.1,0.3c-0.4,0-0.9-0.1-1.3-0.3c-0.4-0.2-0.9-0.5-1.3-0.9l-1.3,2.4c1.3,0.9,2.6,1.3,4.1,1.3
		c0.7,0,1.3-0.1,1.9-0.3c0.6-0.2,1-0.5,1.4-0.8c0.4-0.3,0.7-0.8,0.9-1.2c0.2-0.5,0.3-1,0.3-1.6c0-0.9-0.2-1.6-0.7-2.1
		c-0.5-0.5-1.2-1-2.2-1.3c-0.2-0.1-0.5-0.2-0.7-0.2c-0.3-0.1-0.5-0.2-0.7-0.3c-0.2-0.1-0.4-0.2-0.5-0.3c-0.1-0.1-0.2-0.3-0.2-0.5
		c0-0.3,0.1-0.5,0.4-0.7c0.2-0.2,0.6-0.3,1-0.3c0.3,0,0.6,0.1,1,0.2c0.3,0.1,0.7,0.3,1,0.6L436.8,142L436.8,142z M439.8,141.4V153h3
		v-11.6H439.8L439.8,141.4z M452.7,144v-2.6h-8v2.6h2.5v9h3v-9H452.7L452.7,144z M458.2,153h3v-5.6l4.2-6h-3.6l-2.1,3.2l-2.2-3.2
		H454l4.2,6V153L458.2,153z"/>
	<polygon class="st2" points="173.3,130.1 173.3,132.5 464.9,132.5 464.9,130.1 173.3,130.1 	"/>
</g>
</svg>
