<?xml version="1.0" encoding="utf-8"?>
<!-- Generator: Adobe Illustrator 24.3.0, SVG Export Plug-In . SVG Version: 6.00 Build 0)  -->
<svg version="1.1" id="Layer_1" xmlns="http://www.w3.org/2000/svg" xmlns:xlink="http://www.w3.org/1999/xlink" x="0px" y="0px"
	 viewBox="0 0 399 355" style="enable-background:new 0 0 399 355;" xml:space="preserve">
<style type="text/css">
	.st0{fill:#231F20;}
	.st1{fill:none;stroke:#231F20;stroke-width:1.5;}
	.st2{fill:#ED1C24;}
	.st3{clip-path:url(#SVGID_2_);fill:none;stroke:#FFFFFF;stroke-width:1.3719;stroke-linejoin:round;stroke-miterlimit:10;}
	.st4{clip-path:url(#SVGID_2_);fill:none;stroke:#FFFFFF;stroke-width:2.0578;stroke-linejoin:round;stroke-miterlimit:10;}
	.st5{clip-path:url(#SVGID_2_);fill:none;stroke:#FFFFFF;stroke-width:2.7438;stroke-linejoin:round;stroke-miterlimit:10;}
	.st6{clip-path:url(#SVGID_4_);fill:#ED1C24;}
	.st7{clip-path:url(#SVGID_4_);fill:none;stroke:#FFFFFF;stroke-width:1.3719;stroke-miterlimit:10;}
	.st8{clip-path:url(#SVGID_4_);fill:none;stroke:#FFFFFF;stroke-width:2.0578;stroke-miterlimit:10;}
	.st9{clip-path:url(#SVGID_4_);fill:none;stroke:#FFFFFF;stroke-width:2.7438;stroke-miterlimit:10;}
	.st10{clip-path:url(#SVGID_4_);fill:#FFFFFF;}
	.st11{font-family:'Futura-Bold';}
	.st12{font-size:19px;}
</style>
<g>
	<path class="st0" d="M54.4,229.5c-3.2-5.8-9.6-9.4-16.4-9.4c-10.1,0-17.2,7-17.2,17c0,5.3,2.5,9.3,6.9,12l12.1,6.4
		c5.8,2.9,13.5,6.1,13.5,13.6c0,8.9-7.8,15.9-16.6,15.9c-8.1,0-13.4-5-16.2-12.1l-3.7,1.7c3.1,8.6,10.4,14.4,19.8,14.4
		c10.9,0,21-8.4,21-19.5c0-6.1-2.6-10.2-7.7-13.4l-12.8-6.7c-5.4-2.6-12.1-5.5-12.1-12.6c0-7,5.4-12.8,12.6-12.8
		c6.3,0,10.6,3.1,13.6,7.9L54.4,229.5L54.4,229.5z M122.1,228.8c-6-5.5-14.2-8.7-22.3-8.7c-19.1,0-35.1,15.5-35.1,34.6
		c0,18.8,16.3,34.4,35,34.4c8.3,0,16-3.1,22.4-8.4v-5.9c-5,6.1-14.8,10.2-22.5,10.2c-7.9,0-15.9-3.9-21.6-9.3
		c-5.6-5.5-9-12.9-9-20.8c0-16.5,13.8-30.9,30.6-30.9c8.3,0,17.4,4.3,22.5,10.6V228.8L122.1,228.8z M138.9,220.9h-4.3v67.2h4.3
		V220.9L138.9,220.9z M185.4,225v-4h-32.1v67.2h32.1v-4h-27.8v-30.7h27.1v-4h-27.1V225H185.4L185.4,225z M259.1,220.9h-4.3v58.6
		l-56.4-59.5v68.1h4.3v-57.8l56.4,60V220.9L259.1,220.9z M326.9,228.8c-6-5.5-14.2-8.7-22.3-8.7c-19.1,0-35.1,15.5-35.1,34.6
		c0,18.8,16.3,34.4,35,34.4c8.3,0,16-3.1,22.4-8.4v-5.9c-5,6.1-14.8,10.2-22.5,10.2c-7.9,0-15.9-3.9-21.6-9.3
		c-5.6-5.5-9-12.9-9-20.8c0-16.5,13.8-30.9,30.6-30.9c8.3,0,17.4,4.3,22.5,10.6V228.8L326.9,228.8z M371.5,225v-4h-32.1v67.2h32.1
		v-4h-27.8v-30.7h27.1v-4h-27.1V225H371.5L371.5,225z"/>
	<path class="st1" d="M54.4,229.5c-3.2-5.8-9.6-9.4-16.4-9.4c-10.1,0-17.2,7-17.2,17c0,5.3,2.5,9.3,6.9,12l12.1,6.4
		c5.8,2.9,13.5,6.1,13.5,13.6c0,8.9-7.8,15.9-16.6,15.9c-8.1,0-13.4-5-16.2-12.1l-3.7,1.7c3.1,8.6,10.4,14.4,19.8,14.4
		c10.9,0,21-8.4,21-19.5c0-6.1-2.6-10.2-7.7-13.4l-12.8-6.7c-5.4-2.6-12.1-5.5-12.1-12.6c0-7,5.4-12.8,12.6-12.8
		c6.3,0,10.6,3.1,13.6,7.9L54.4,229.5L54.4,229.5z M122.1,228.8c-6-5.5-14.2-8.7-22.3-8.7c-19.1,0-35.1,15.5-35.1,34.6
		c0,18.8,16.3,34.4,35,34.4c8.3,0,16-3.1,22.4-8.4v-5.9c-5,6.1-14.8,10.2-22.5,10.2c-7.9,0-15.9-3.9-21.6-9.3
		c-5.6-5.5-9-12.9-9-20.8c0-16.5,13.8-30.9,30.6-30.9c8.3,0,17.4,4.3,22.5,10.6V228.8L122.1,228.8z M138.9,220.9h-4.3v67.2h4.3
		V220.9L138.9,220.9z M185.4,225v-4h-32.1v67.2h32.1v-4h-27.8v-30.7h27.1v-4h-27.1V225H185.4L185.4,225z M259.1,220.9h-4.3v58.6
		l-56.4-59.5v68.1h4.3v-57.8l56.4,60V220.9L259.1,220.9z M326.9,228.8c-6-5.5-14.2-8.7-22.3-8.7c-19.1,0-35.1,15.5-35.1,34.6
		c0,18.8,16.3,34.4,35,34.4c8.3,0,16-3.1,22.4-8.4v-5.9c-5,6.1-14.8,10.2-22.5,10.2c-7.9,0-15.9-3.9-21.6-9.3
		c-5.6-5.5-9-12.9-9-20.8c0-16.5,13.8-30.9,30.6-30.9c8.3,0,17.4,4.3,22.5,10.6V228.8L326.9,228.8z M371.5,225v-4h-32.1v67.2h32.1
		v-4h-27.8v-30.7h27.1v-4h-27.1V225H371.5L371.5,225z"/>
	<path class="st0" d="M64.4,160.1c-4.6-3.4-9.7-5.1-15.5-5.1c-14.9,0-27,12.2-27,27c0,14.7,12.4,26.6,27,26.6c5.5,0,11-1.9,15.5-5.1
		v-7.2c-4.1,4.1-9.8,6.9-15.7,6.9c-11.6,0-21.1-10-21.1-21.5c0-11.4,9.4-21.5,20.9-21.5c6,0,11.7,2.6,15.8,6.9V160.1L64.4,160.1z
		 M98.6,155c-14.8,0-27,12-27,26.9c0,14.9,12.3,26.8,27,26.8s27-11.8,27-26.8C125.6,167,113.4,155,98.6,155L98.6,155z M98.6,160.4
		c11.9,0,21.3,9.7,21.3,21.5c0,11.7-9.5,21.5-21.3,21.5s-21.3-9.8-21.3-21.5C77.3,170.1,86.7,160.4,98.6,160.4L98.6,160.4z
		 M129.7,207.8h5.9l6.7-35.1h0.1l16.7,37.2l16.7-37.2h0.1l6.7,35.1h5.9L178,152.9l-18.9,43.6l-18.9-43.6L129.7,207.8L129.7,207.8z
		 M200.9,185.1h4.2c4.3,0,8.8-0.6,12.3-3.4c3.2-2.7,5-7,5-11.1c0-4.6-2-9.2-5.9-11.8c-3.8-2.6-8.4-2.8-12.9-2.8h-8.5v51.9h5.8V185.1
		L200.9,185.1z M200.9,161.3h2.1c6.7,0,13.6,0.6,13.6,9.1c0,7.4-5.4,9.4-11.8,9.4h-3.9V161.3L200.9,161.3z M235.4,155.9h-5.8v32.5
		c0,5.9,0.6,10.7,5.1,15c3.5,3.4,8.5,5.3,13.4,5.3c5.2,0,10.4-2.1,14-5.9c4.1-4.3,4.5-8.7,4.5-14.4v-32.5h-5.8v30.9
		c0,4.1,0.2,8.6-2.5,11.9c-2.4,2.9-6.5,4.6-10.2,4.6c-3.8,0-8.2-1.8-10.5-5c-2.4-3.3-2.3-7.7-2.3-11.6V155.9L235.4,155.9z
		 M290.7,161.3h12.7v-5.4h-31v5.4h12.5v46.5h5.8V161.3L290.7,161.3z M309.2,207.8h26.9v-5.4H315v-20.4h20.5v-5.4H315v-15.4h21.1
		v-5.4h-26.9V207.8L309.2,207.8z M351.8,161.3h1.7c7,0,13.2,0.8,13.2,9.4c0,8.1-6.6,9.3-13.1,9.3h-1.8V161.3L351.8,161.3z
		 M351.8,185h1.4l15.7,22.8h7.1l-16.5-23.3c8-0.7,13-6.3,13-14.3c0-11.7-9.2-14.3-19-14.3H346v51.9h5.8V185L351.8,185z"/>
	<path class="st2" d="M198.9,142.6c32.5,0,58.8-26.3,58.8-58.8S231.4,25,198.9,25s-58.8,26.3-58.8,58.8S166.4,142.6,198.9,142.6
		L198.9,142.6z"/>
	<g>
		<defs>
			<path id="SVGID_1_" d="M198.9,142.6c32.5,0,58.8-26.3,58.8-58.8S231.4,25,198.9,25s-58.8,26.3-58.8,58.8S166.4,142.6,198.9,142.6
				L198.9,142.6z"/>
		</defs>
		<clipPath id="SVGID_2_">
			<use xlink:href="#SVGID_1_"  style="overflow:visible;"/>
		</clipPath>
		<path class="st3" d="M241,57.6h-43.9l-11,13.7 M207.2,91.9h-45.3l-9.6,13.7 M186.1,57.8h-43.9l-11,13.7 M231.7,85.1h-45.3
			l-9.6,13.7 M206.7,43.9h-34.3l-34.3,41.2H83.2 M217.7,78.2h-38.4l-27.4,41.2H83.2"/>
		<path class="st4" d="M83.2,71.4H147l34.3,41.2h29.5 M220.4,50.8h-61.7l-41.2,48H83.2"/>
		<path class="st5" d="M227.3,71.4h-54.9l-13.7,20.6H83.2 M247.8,112.5h-27.4l-13.7-13.7h-89.2"/>
		<polyline class="st3" points="254.7,126.2 213.5,126.2 193,105.7 83.2,105.7 		"/>
	</g>
	<g>
		<defs>
			<path id="SVGID_3_" d="M198.9,142.6c32.5,0,58.8-26.3,58.8-58.8S231.4,25,198.9,25s-58.8,26.3-58.8,58.8S166.4,142.6,198.9,142.6
				L198.9,142.6z"/>
		</defs>
		<clipPath id="SVGID_4_">
			<use xlink:href="#SVGID_3_"  style="overflow:visible;"/>
		</clipPath>
		<path class="st6" d="M210.5,43.9c0,1.6-1.3,2.9-2.9,2.9c-1.6,0-2.9-1.3-2.9-2.9s1.3-2.9,2.9-2.9C209.2,41,210.5,42.3,210.5,43.9"
			/>
		<path class="st7" d="M210.5,43.9c0,1.6-1.3,2.9-2.9,2.9c-1.6,0-2.9-1.3-2.9-2.9s1.3-2.9,2.9-2.9C209.2,41,210.5,42.3,210.5,43.9
			L210.5,43.9z"/>
		<path class="st6" d="M220.4,78.2c0,1.6-1.3,2.9-2.9,2.9c-1.6,0-2.9-1.3-2.9-2.9c0-1.6,1.3-2.9,2.9-2.9
			C219.1,75.3,220.4,76.6,220.4,78.2"/>
		<path class="st7" d="M220.4,78.2c0,1.6-1.3,2.9-2.9,2.9c-1.6,0-2.9-1.3-2.9-2.9c0-1.6,1.3-2.9,2.9-2.9
			C219.1,75.3,220.4,76.6,220.4,78.2L220.4,78.2z"/>
		<path class="st6" d="M257.4,126.1c0,1.6-1.3,2.9-2.9,2.9c-1.6,0-2.9-1.3-2.9-2.9c0-1.6,1.3-2.9,2.9-2.9
			C256.2,123.2,257.4,124.5,257.4,126.1"/>
		<path class="st7" d="M257.4,126.1c0,1.6-1.3,2.9-2.9,2.9c-1.6,0-2.9-1.3-2.9-2.9c0-1.6,1.3-2.9,2.9-2.9
			C256.2,123.2,257.4,124.5,257.4,126.1L257.4,126.1z"/>
		<path class="st6" d="M224.5,50.8c0,2.3-1.8,4.1-4.1,4.1c-2.3,0-4.1-1.8-4.1-4.1c0-2.3,1.8-4.1,4.1-4.1
			C222.7,46.7,224.5,48.5,224.5,50.8"/>
		<path class="st8" d="M224.5,50.8c0,2.3-1.8,4.1-4.1,4.1c-2.3,0-4.1-1.8-4.1-4.1c0-2.3,1.8-4.1,4.1-4.1
			C222.7,46.7,224.5,48.5,224.5,50.8L224.5,50.8z"/>
		<path class="st6" d="M231.4,71.4c0,2.3-1.8,4.1-4.1,4.1c-2.3,0-4.1-1.8-4.1-4.1c0-2.3,1.8-4.1,4.1-4.1
			C229.5,67.2,231.4,69.1,231.4,71.4"/>
		<path class="st8" d="M231.4,71.4c0,2.3-1.8,4.1-4.1,4.1c-2.3,0-4.1-1.8-4.1-4.1c0-2.3,1.8-4.1,4.1-4.1
			C229.5,67.2,231.4,69.1,231.4,71.4L231.4,71.4z"/>
		<path class="st6" d="M252,112.5c0,2.3-1.8,4.1-4.1,4.1c-2.3,0-4.1-1.8-4.1-4.1c0-2.3,1.8-4.1,4.1-4.1
			C250.1,108.4,252,110.2,252,112.5"/>
		<path class="st9" d="M252,112.5c0,2.3-1.8,4.1-4.1,4.1c-2.3,0-4.1-1.8-4.1-4.1c0-2.3,1.8-4.1,4.1-4.1
			C250.1,108.4,252,110.2,252,112.5L252,112.5z"/>
		<path class="st10" d="M213.2,112.5c0,1.6-1.3,2.9-2.9,2.9c-1.6,0-2.9-1.3-2.9-2.9s1.3-2.9,2.9-2.9
			C211.9,109.6,213.2,110.9,213.2,112.5"/>
		<path class="st10" d="M243.9,57.6c0,1.6-1.3,2.9-2.9,2.9c-1.6,0-2.9-1.3-2.9-2.9s1.3-2.9,2.9-2.9C242.6,54.8,243.9,56,243.9,57.6"
			/>
		<path class="st10" d="M210,91.9c0,1.6-1.3,2.9-2.9,2.9c-1.6,0-2.9-1.3-2.9-2.9c0-1.6,1.3-2.9,2.9-2.9
			C208.8,89.1,210,90.3,210,91.9"/>
		<path class="st10" d="M189,57.8c0,1.6-1.3,2.9-2.9,2.9c-1.6,0-2.9-1.3-2.9-2.9c0-1.6,1.3-2.9,2.9-2.9
			C187.7,54.9,189,56.2,189,57.8"/>
		<path class="st10" d="M234.6,85.1c0,1.6-1.3,2.9-2.9,2.9c-1.6,0-2.9-1.3-2.9-2.9c0-1.6,1.3-2.9,2.9-2.9
			C233.3,82.3,234.6,83.6,234.6,85.1"/>
	</g>
	<text transform="matrix(1 0 0 1 18.3912 328.5465)" class="st0 st11 st12">SOUTHERN OREGON UNIVERSIT</text>
	<text transform="matrix(1 0 0 1 365.6256 328.5465)" class="st0 st11 st12">Y</text>
	<polygon class="st2" points="18.8,300.3 18.8,303.3 378.8,303.3 378.8,300.3 18.8,300.3 	"/>
</g>
</svg>
