<svg id="Layer_1" data-name="Layer 1" xmlns="http://www.w3.org/2000/svg" viewBox="0 0 1600 800"><defs><style>.cls-1{fill:#f7f7f7;}.cls-2{fill:#adaeaf;}</style></defs><title>hz-white-grey</title><path class="cls-1" d="M622.07,524.4l-.41-.41-48.2-48.2-58.74-58.74L456,358.31l-29.37-29.37h0a41.51,41.51,0,0,0-58.73,0h0L338.5,358.31l-27.24,27.24c3-.25,6.07-.38,9.14-.38a108.32,108.32,0,0,1,74.28,29.33l2.56,2.55,2.56,2.56L456,475.79l57.64,57.64a3.72,3.72,0,0,0,1.34.86,3.55,3.55,0,0,0,1.31.24H617.58a6.06,6.06,0,0,0,4.49-10.13Z"/><path class="cls-2" d="M394.68,414.5a108.32,108.32,0,0,0-74.28-29.33c-3.07,0-6.13.13-9.14.38l-31.5,31.5L221,475.79l-8.95,9-39.42,39.41,0,0a6.06,6.06,0,0,0,4.28,10.34H278.2a3.55,3.55,0,0,0,1.31-.24,3.63,3.63,0,0,0,1.34-.86l57.65-57.64,58.74-58.74Z"/><path class="cls-1" d="M716.35,511.71v22.82h-4.08v-22.2c0-7.37-4.31-10.51-10.12-10.51-7.92,0-11.06,8-11.06,8v24.71H687V498.76h3.69v6.51a13.81,13.81,0,0,1,12.24-7.45C709.61,497.82,716.35,502,716.35,511.71Z"/><path class="cls-1" d="M814.79,516.65a12.63,12.63,0,0,1-.08,1.65H783.88a14.12,14.12,0,0,0,14.28,13.17,15.9,15.9,0,0,0,12.24-6.12l2.74,2.83a20.14,20.14,0,0,1-15,7.29c-10.67,0-18.35-8.62-18.35-18.82s7-18.83,17.65-18.83C807,497.82,814.79,505.67,814.79,516.65Zm-4.23-2.12c-.16-4.08-3.69-12.71-13.1-12.71-10,0-13.26,8.79-13.42,12.71Z"/><path class="cls-1" d="M874.79,498.76h7.77V487.23h4.08v11.53H898.8v3.77H886.64V524.1c0,4,1.41,7.37,6.28,7.37a11.06,11.06,0,0,0,5.33-1.64l1.57,3.53a15.59,15.59,0,0,1-7.06,2.11c-7,0-10.2-4.7-10.2-10.58V502.53h-7.77Z"/><path class="cls-1" d="M962.33,498.76l11.61,28,11.38-28h2.35l11.3,28,11.53-28h4.23l-16,37.34-12.39-29.89L973.86,536.1l-15.92-37.34Z"/><path class="cls-1" d="M1109.09,516.65c0,10.35-7.53,18.82-18.2,18.82s-18.2-8.47-18.2-18.82,7.53-18.83,18.2-18.83S1109.09,506.29,1109.09,516.65Zm-4.23,0c0-8.08-5-14.83-14-14.83s-14,6.75-14,14.83,5,14.82,14,14.82S1104.86,524.73,1104.86,516.65Z"/><path class="cls-1" d="M1192.23,498.76l-1.72,3.92a10.33,10.33,0,0,0-4.79-.86c-6.19,0-9.1,6.9-9.1,6.9v25.81h-4.07V498.76h3.68v5.81s3.06-6.75,10.44-6.75A15.34,15.34,0,0,1,1192.23,498.76Z"/><path class="cls-1" d="M1258.67,516.65v17.88h-4.08v-59.3h4.08v39.93l17.89-16.4h5.72l-18.59,17.1,20.4,18.67h-6Z"/><path class="cls-1" d="M1345.19,525.12a14.1,14.1,0,0,0,12.08,6.35c3.92,0,9.33-1.57,9.33-6.27,0-4.08-4.39-5.34-10-6.59-7.84-1.73-12.71-4.71-12.71-10.67,0-5.1,4.79-10.12,12.63-10.12a17.62,17.62,0,0,1,12.79,5l-2.67,3a14.48,14.48,0,0,0-10.12-4c-4.86,0-8.47,2.43-8.47,6.12,0,4.39,4.71,5.65,10.75,7,6.66,1.49,12,3.85,12,10.28,0,6.82-6.83,10.27-13.57,10.27a18.3,18.3,0,0,1-15.3-7.6Z"/><path class="cls-1" d="M1053.26,319h-17.4a2.41,2.41,0,0,0-2.41,2.41v16.93s-13-22.81-45.62-22.81c-35.52,0-64.1,30.9-64.1,70.16s28.58,70.16,64.1,70.16c32.62,0,45.62-22.81,45.62-22.81V450a2.41,2.41,0,0,0,2.41,2.42h17.4a2.42,2.42,0,0,0,2.42-2.42V321.43A2.41,2.41,0,0,0,1053.26,319Zm-21.84,91.81s-13,22.52-39,22.52C965.31,433.35,948,412,948,385.71s17.33-47.64,44.47-47.64c26,0,39,22.52,39,22.52Z"/><path class="cls-1" d="M739.1,373c-21.94-4.62-32.33-10.1-32.33-20.21,0-8.66,8.37-17,25.4-17,16,0,27.66,9.23,31.82,13.08a2.42,2.42,0,0,0,3.37-.11l12.55-13a2.41,2.41,0,0,0-.07-3.42,70.25,70.25,0,0,0-47.67-18.49c-29.74,0-49.08,19.06-49.08,38.4,0,25.12,20.21,36.38,48.8,42.16,20.5,4,30.31,9.81,30.31,21.36,0,10.69-15.3,16.46-28.87,16.46-21.23,0-34.54-14.14-38.87-19.57a2.42,2.42,0,0,0-3.53-.25L677.78,424.6a2.41,2.41,0,0,0-.23,3.3c5.09,6.17,24,26.21,55.78,26.21,25.7,0,52.84-13.28,52.84-39C786.17,388,764.51,378.47,739.1,373Z"/><path class="cls-1" d="M860.54,317.25c-17.74,0-29,8.18-35.11,14.59a2.42,2.42,0,0,1-4.16-1.67v-81.9a2.41,2.41,0,0,0-2.41-2.41H799.44a2.41,2.41,0,0,0-2.42,2.41V451.7a2.41,2.41,0,0,0,2.42,2.41h19.42a2.41,2.41,0,0,0,2.41-2.41V362.91a2.45,2.45,0,0,1,.31-1.18c2-3.5,13.3-22,32.9-22,17.9,0,32,9.81,32,32.62v79.3a2.41,2.41,0,0,0,2.41,2.41h19.43a2.41,2.41,0,0,0,2.41-2.41V368.36C910.78,335.45,887.11,317.25,860.54,317.25Z"/><path class="cls-1" d="M1239.25,430.6a20.93,20.93,0,0,1-6,1c-13,0-19.34-7.51-19.34-20.5V339.2h24.2a81.74,81.74,0,0,1,10.32-14.06,77.11,77.11,0,0,1,6.78-6.53,2.39,2.39,0,0,0-2.14-1.35h-39.16V275a2.42,2.42,0,0,0-2.42-2.42h-19.42a2.42,2.42,0,0,0-2.42,2.42v42.31h-23.57a2.41,2.41,0,0,0-2.41,2.41v17.12a2.41,2.41,0,0,0,2.41,2.41h23.57v73.05c0,29.45,21.08,41.86,40.14,41.86,6.9,0,14.29-1.4,23.91-6.13-1.82-1.64-3.58-3.37-5.27-5.21A81.1,81.1,0,0,1,1239.25,430.6Z"/><path class="cls-1" d="M1167.7,416c0-26.51-21.15-35.82-46-41.18-21.44-4.51-31.59-9.87-31.59-19.74,0-8.46,8.18-16.64,24.82-16.64l32.59.66a2.83,2.83,0,0,0,2.88-2.89l-.18-16.07a3.15,3.15,0,0,0-3-2.94L1115,317c-29,0-48,18.62-48,37.52,0,24.53,19.75,35.53,47.67,41.17,20,3.95,29.61,9.59,29.61,20.87,0,10.44-15,16.08-28.2,16.08-20.74,0-33.74-13.81-38-19.11a2.35,2.35,0,0,0-3.44-.25l-12.86,12a2.35,2.35,0,0,0-.21,3.22c5,6,23.47,25.6,54.48,25.6C1141.19,454.11,1167.7,441.14,1167.7,416Z"/><path class="cls-1" d="M1372.64,317.26h-17.4a2.41,2.41,0,0,0-2.42,2.41V336.6s-13-22.81-45.62-22.81a60.55,60.55,0,0,0-38.58,13.94c-15.52,12.7-25.52,33-25.52,56.22,0,39.27,28.59,70.16,64.1,70.16,32.63,0,45.62-22.81,45.62-22.81v16.93a2.42,2.42,0,0,0,2.42,2.42h17.4a2.41,2.41,0,0,0,2.41-2.42V319.67A2.41,2.41,0,0,0,1372.64,317.26Zm-21.84,91.81s-13,22.52-39,22.52c-27.14,0-44.46-21.36-44.46-47.64,0-16.77,7.07-31.54,19.24-40a43.41,43.41,0,0,1,25.22-7.61c26,0,39,22.52,39,22.52v50.24Z"/></svg>