<svg id="Layer_1" data-name="Layer 1" xmlns="http://www.w3.org/2000/svg" viewBox="0 0 800 800"><defs><style>.cls-1{fill:#1a1a1a;}</style></defs><title>icon-blk</title><path class="cls-1" d="M400,406l2.58,2.58,56.49,56.49,58,58a3.8,3.8,0,0,0,1.34.86,3.64,3.64,0,0,0,1.32.24H621.59a6.1,6.1,0,0,0,4.51-10.19l-.41-.41-48.47-48.47L518.15,406l-59.07-59.06-29.53-29.54h0a41.74,41.74,0,0,0-59.06,0h0l-29.54,29.54-27.39,27.39h0L281.87,406,222.8,465.06l-9,9-39.64,39.63,0,0a6.1,6.1,0,0,0,4.31,10.4H280.32a3.58,3.58,0,0,0,1.31-.24A3.75,3.75,0,0,0,283,523l58-58L400,406m-77.26-32.06Z"/></svg>