<svg id="Layer_1" data-name="Layer 1" xmlns="http://www.w3.org/2000/svg" viewBox="0 0 800 800"><defs><style>.cls-1{font-size:79px;font-family:Europa-Light, Europa-Light;letter-spacing:0.7em;}.cls-1,.cls-4{fill:#f7f7f7;}.cls-2{letter-spacing:0.69em;}.cls-3{letter-spacing:0.7em;}.cls-5{fill:#adaeaf;}</style></defs><title>vert-white-grey</title><text class="cls-1" transform="translate(25.64 664.38)">net<tspan class="cls-2" x="277.76" y="0">w</tspan><tspan x="391.28" y="0">or</tspan><tspan class="cls-3" x="570.38" y="0">k</tspan><tspan x="662.41" y="0">s</tspan></text><path class="cls-4" d="M400.21,447.32H382.68a2.43,2.43,0,0,0-2.43,2.44v17.05s-13.09-23-45.95-23c-35.77,0-64.56,31.12-64.56,70.67s28.79,70.66,64.56,70.66c32.86,0,45.95-23,45.95-23v17a2.43,2.43,0,0,0,2.43,2.43h17.53a2.43,2.43,0,0,0,2.43-2.43V449.76A2.43,2.43,0,0,0,400.21,447.32Zm-22,92.48S365.12,562.48,339,562.48c-27.33,0-44.78-21.52-44.78-48s17.45-48,44.78-48c26.17,0,39.26,22.68,39.26,22.68Z"/><path class="cls-4" d="M83.8,501.67C61.7,497,51.23,491.5,51.23,481.32c0-8.73,8.43-17.16,25.59-17.16,16.11,0,27.85,9.29,32,13.17a2.46,2.46,0,0,0,3.4-.11l12.63-13.09a2.43,2.43,0,0,0-.07-3.45,70.74,70.74,0,0,0-48-18.62c-30,0-49.44,19.19-49.44,38.68,0,25.3,20.36,36.64,49.15,42.45,20.64,4.07,30.53,9.89,30.53,21.52,0,10.76-15.41,16.58-29.08,16.58-21.38,0-34.79-14.24-39.15-19.71a2.43,2.43,0,0,0-3.55-.25L22,553.66A2.43,2.43,0,0,0,21.8,557C26.92,563.2,46,583.39,78,583.39c25.88,0,53.22-13.38,53.22-39.26C131.2,516.8,109.39,507.2,83.8,501.67Z"/><path class="cls-4" d="M206.1,445.55c-17.86,0-29.21,8.23-35.36,14.69a2.43,2.43,0,0,1-4.18-1.69V376.07a2.43,2.43,0,0,0-2.44-2.43H144.56a2.43,2.43,0,0,0-2.43,2.43V581a2.43,2.43,0,0,0,2.43,2.43h19.56a2.43,2.43,0,0,0,2.44-2.43V491.53a2.38,2.38,0,0,1,.31-1.19c2-3.52,13.39-22.11,33.13-22.11,18,0,32.28,9.89,32.28,32.86V581a2.43,2.43,0,0,0,2.43,2.43h19.56A2.43,2.43,0,0,0,256.7,581V497C256.7,463.87,232.86,445.55,206.1,445.55Z"/><path class="cls-4" d="M587.52,559.7a20.82,20.82,0,0,1-6,1c-13.08,0-19.48-7.57-19.48-20.65V467.65h24.38a82.35,82.35,0,0,1,10.39-14.16,81.27,81.27,0,0,1,6.83-6.58,2.42,2.42,0,0,0-2.16-1.36H562V402.94a2.43,2.43,0,0,0-2.43-2.43H540a2.43,2.43,0,0,0-2.43,2.43v42.61H513.84a2.43,2.43,0,0,0-2.43,2.43v17.24a2.43,2.43,0,0,0,2.43,2.43h23.74v73.57c0,29.66,21.23,42.17,40.42,42.17,7,0,14.4-1.42,24.09-6.18-1.83-1.65-3.61-3.4-5.31-5.25A82.32,82.32,0,0,1,587.52,559.7Z"/><path class="cls-4" d="M515.46,545c0-26.7-21.3-36.07-46.3-41.47-21.59-4.55-31.81-9.94-31.81-19.88,0-8.53,8.23-16.76,25-16.76l32.82.66a2.83,2.83,0,0,0,2.9-2.9l-.18-16.19a3.16,3.16,0,0,0-3-3l-32.54-.19c-29.25,0-48.29,18.75-48.29,37.78,0,24.71,19.89,35.79,48,41.47,20.17,4,29.83,9.66,29.83,21,0,10.51-15.06,16.19-28.41,16.19-20.88,0-34-13.91-38.24-19.25a2.37,2.37,0,0,0-3.47-.25l-12.94,12.05a2.38,2.38,0,0,0-.22,3.25c5,6.08,23.64,25.79,54.87,25.79C488.76,583.39,515.46,570.32,515.46,545Z"/><path class="cls-4" d="M721.87,445.55H704.34a2.43,2.43,0,0,0-2.43,2.43v17s-13.09-23-45.95-23a61,61,0,0,0-38.85,14c-15.63,12.8-25.7,33.23-25.7,56.62,0,39.55,28.79,70.67,64.55,70.67,32.86,0,45.95-23,45.95-23v17.06a2.43,2.43,0,0,0,2.43,2.43h17.53a2.43,2.43,0,0,0,2.43-2.43V448A2.43,2.43,0,0,0,721.87,445.55Zm-22,92.47s-13.08,22.69-39.25,22.69c-27.34,0-44.79-21.52-44.79-48,0-16.89,7.12-31.76,19.38-40.31a43.77,43.77,0,0,1,25.41-7.67c26.17,0,39.25,22.68,39.25,22.68V538Z"/><path class="cls-4" d="M604.13,324.52l-.42-.42-48.43-48.43-59-59-59-59L407.7,128.09h0a41.74,41.74,0,0,0-59,0h0L319.15,157.6,291.78,185c3-.26,6.1-.39,9.19-.39a108.92,108.92,0,0,1,74.65,29.48l2.56,2.57,2.58,2.57,56.46,56.46,57.92,57.92a3.78,3.78,0,0,0,1.35.87,3.64,3.64,0,0,0,1.32.24H599.62a6.09,6.09,0,0,0,4.51-10.18Z"/><path class="cls-5" d="M375.62,214.07A108.92,108.92,0,0,0,301,184.59c-3.09,0-6.16.13-9.19.39l-31.66,31.66-59,59-9,9-39.61,39.61h0a6.1,6.1,0,0,0,4.31,10.4H258.56a3.74,3.74,0,0,0,2.66-1.11l57.93-57.92,59-59Z"/></svg>